# xmcd
#
# Track frame offsets: 
#        150
#        23317
#        44411
#        72455
#        90117
#        113782
#        140069
#        150378
#        180621
#        207507
#        231598
#        253079
#        274230
#        294224
#
# Disc length: 4257 seconds
#
# Revision: 2
# Processed by: cddbd v1.5.2PL0 Copyright (c) Steve Scherf et al.
# Submitted via: ExactAudioCopy v0.95b4
#
DISCID=c4109f0e
DTITLE=Lee Ritenour - Smoke 'n' Mirrors
DYEAR=2006
DGENRE=Jazz
TTITLE0=Smoke 'n' Mirrors
TTITLE1=Capetown
TTITLE2=Southwest Passage
TTITLE3=Waters Edge
TTITLE4=Blue Days (Dias Azuis)
TTITLE5=Spellbinder
TTITLE6=Memeza
TTITLE7=Povo
TTITLE8=Lovely Day
TTITLE9=Township
TTITLE10=Forget Me Nots
TTITLE11=Stone Cool
TTITLE12=Motherland
TTITLE13=4 1/2 Storms 
EXTD=YEAR: 2006
EXTT0=
EXTT1=
EXTT2=
EXTT3=
EXTT4=
EXTT5=
EXTT6=
EXTT7=
EXTT8=
EXTT9=
EXTT10=
EXTT11=
EXTT12=
EXTT13=
PLAYORDER=
